<?xml version="1.0" standalone="no"?><!DOCTYPE svg PUBLIC "-//W3C//DTD SVG 1.1//EN" "http://www.w3.org/Graphics/SVG/1.1/DTD/svg11.dtd"><svg t="1664335107363" class="icon" viewBox="0 0 1024 1024" version="1.1" xmlns="http://www.w3.org/2000/svg" p-id="4573" xmlns:xlink="http://www.w3.org/1999/xlink" width="200" height="200"><path d="M511.999488 0.335644c0 0-383.746988 427.65808-383.746988 639.581724 0 211.92569 171.821297 383.746988 383.746988 383.746988 211.923644 0 383.746988-171.821297 383.746988-383.746988C895.746476 427.993724 511.999488 0.335644 511.999488 0.335644zM710.200596 620.289332 551.360961 792.363386c-9.702989 10.509355-23.740704 17.124006-39.361473 17.124006-15.619746 0-29.658484-6.616698-39.36352-17.124006L313.802474 620.289332c-8.438183-9.103332-13.586436-21.265326-13.586436-34.499745 0-28.542056 23.697725-51.621704 52.942793-51.621704 15.618723 0 29.658484 6.617721 39.36045 17.041118l66.533322 72.140017L459.052602 310.469054c0-28.542056 23.702841-51.623751 52.947909-51.623751 29.246091 0 52.944839 23.081695 52.944839 51.623751l0 312.880987 66.533322-72.140017c9.702989-10.425444 23.74275-17.041118 39.36045-17.041118 29.245068 0 52.945863 23.081695 52.945863 51.621704C723.783962 599.024006 718.638779 611.188047 710.200596 620.289332z" p-id="4574"></path></svg>