<?xml version="1.0" standalone="no"?><!DOCTYPE svg PUBLIC "-//W3C//DTD SVG 1.1//EN" "http://www.w3.org/Graphics/SVG/1.1/DTD/svg11.dtd"><svg t="1664340585818" class="icon" viewBox="0 0 1024 1024" version="1.1" xmlns="http://www.w3.org/2000/svg" p-id="4728" xmlns:xlink="http://www.w3.org/1999/xlink" width="200" height="200"><path d="M397.93664 460.7488c-0.955733-1.15712-2.0992-2.082133-3.36896-2.717013-0.047787-0.027307-0.1024-0.034133-0.16384-0.058027-1.170773-0.5632-2.430293-0.884053-3.75808-0.884053-1.3312 0-2.59072 0.320853-3.751253 0.884053-0.058027 0.023893-0.109227 0.03072-0.167253 0.058027-1.25952 0.63488-2.409813 1.559893-3.365547 2.717013l-75.772587 91.712853c-4.027733 4.881067-4.027733 12.772693 0 17.640107 4.027733 4.87424 10.5472 4.87424 14.574933 0l58.180267-70.437547 0 197.64224c0 6.888107 4.614827 12.47232 10.304853 12.47232 5.696853 0 10.304853-5.587627 10.304853-12.47232l0-197.64224 58.84928 71.222613c2.010453 2.43712 4.645547 3.659093 7.277227 3.659093s5.277013-1.221973 7.294293-3.659093c4.020907-4.87424 4.020907-12.76928 0-17.63328L397.93664 460.7488z" p-id="4729"></path><path d="M632.613547 612.765013l-58.19392 67.560107 0-189.586773c0-6.6048-4.614827-11.963733-10.30144-11.963733-5.69344 0-10.308267 5.358933-10.308267 11.963733l0 189.586773-58.845867-68.32128c-4.02432-4.672853-10.543787-4.672853-14.57152 0-4.02432 4.676267-4.02432 12.240213 0 16.91648l76.43136 88.733013c0.96256 1.102507 2.0992 2.000213 3.362133 2.604373 0.054613 0.027307 0.116053 0.027307 0.170667 0.054613 1.160533 0.53248 2.420053 0.853333 3.754667 0.853333 1.3312 0 2.594133-0.320853 3.75808-0.853333 0.054613-0.027307 0.1024-0.027307 0.160427-0.054613 1.26976-0.60416 2.41664-1.49504 3.362133-2.604373l75.78624-87.98208c4.03456-4.666027 4.03456-12.240213 0-16.90624C643.15392 608.085333 636.648107 608.085333 632.613547 612.765013z" p-id="4730"></path><path d="M518.95296 5.126827c-276.821333 0-501.22752 224.4096-501.22752 501.230933 0 276.814507 224.406187 501.22752 501.22752 501.22752 276.814507 0 501.22752-224.413013 501.22752-501.22752C1020.18048 229.53984 795.767467 5.126827 518.95296 5.126827zM469.046613 874.069333l-0.023893 0c-65.14688 0-128.201387-21.879467-177.547947-61.590187-63.982933-51.5072-94.641493-117.13536-91.16672-195.065173 1.3312-29.579947 11.758933-56.999253 23.227733-84.811093 34.62144-83.80416 82.274987-161.481387 119.9616-219.805013 23.866027-36.95616 49.210027-73.80992 73.69728-109.462187l13.574827-19.746133 0.324267-0.45056c3.474773-5.195093 17.042773-23.21408 38.608213-23.21408 14.353067 0 27.101867 7.65952 37.864107 22.784l8.133973 11.578027c61.16352 88.122027 124.86656 184.15616 176.83456 289.252693 17.44896 35.321173 35.11296 73.270613 42.635947 114.619733 9.79968 53.671253-2.136747 106.35264-35.413333 156.64128C650.31168 829.477547 564.056747 874.069333 469.046613 874.069333zM790.388053 741.376c-35.42016 45.755733-85.466453 77.568-142.021973 92.224853 35.21536-20.49024 65.3312-48.626347 87.483733-83.12832 32.146773-50.117973 43.19232-102.311253 32.768-155.159893-8.01792-40.72448-25.985707-77.950293-43.721387-112.57856-52.794027-103.041707-117.03296-196.969813-178.66752-283.118933l-5.413547-7.4752c3.87072-4.82304 7.75168-9.6768 11.588267-14.45888l14.81728-18.459307 0.344747-0.41984c3.805867-4.860587 18.486613-21.61664 39.717547-20.03968 14.144853 1.047893 26.135893 9.526613 35.628373 25.20064l7.171413 11.997867c53.797547 91.24864 109.513387 190.47424 153.009493 297.765547 14.61248 36.058453 29.228373 74.72128 33.62816 115.98848C842.441387 643.2768 826.825387 694.29248 790.388053 741.376z" p-id="4731"></path></svg>