<?xml version="1.0" standalone="no"?><!DOCTYPE svg PUBLIC "-//W3C//DTD SVG 1.1//EN" "http://www.w3.org/Graphics/SVG/1.1/DTD/svg11.dtd"><svg t="1664340618601" class="icon" viewBox="0 0 1024 1024" version="1.1" xmlns="http://www.w3.org/2000/svg" p-id="5444" xmlns:xlink="http://www.w3.org/1999/xlink" width="200" height="200"><path d="M5.298087 0H1024v1022.901797H5.298087z" fill="#FFFFFF" p-id="5445"></path><path d="M0 0.912696h1018.88742V1024H0z" fill="#FFFFFF" opacity=".5" p-id="5446"></path><path d="M515.858551 528.814377a237.449275 237.449275 0 1 0-238.658783-237.449276 238.050319 238.050319 0 0 0 238.658783 237.449276z" fill="#A05CDD" p-id="5447"></path><path d="M561.263304 538.831768l-33.109333 33.769739 67.524638 220.382609-81.029566 96.419246-81.036985-96.426666 67.524638-220.382609-33.109334-33.769739c-208.999884 22.505739-374.294261 194.456116-391.049275 409.154782a33.317101 33.317101 0 0 0 32.871884 36.062609h809.635246a33.324522 33.324522 0 0 0 32.879305-36.062609c-16.806957-214.691246-182.101333-386.641623-391.101218-409.147362z" fill="#A05CDD" p-id="5448"></path></svg>