<?xml version="1.0" standalone="no"?><!DOCTYPE svg PUBLIC "-//W3C//DTD SVG 1.1//EN" "http://www.w3.org/Graphics/SVG/1.1/DTD/svg11.dtd"><svg t="1664340636643" class="icon" viewBox="0 0 1097 1024" version="1.1" xmlns="http://www.w3.org/2000/svg" p-id="5941" xmlns:xlink="http://www.w3.org/1999/xlink" width="214.2578125" height="200"><path d="M806.838857 990.464H290.304a120.685714 120.685714 0 0 1-120.32-120.393143V396.434286a120.685714 120.685714 0 0 1 120.32-120.32h516.534857a120.685714 120.685714 0 0 1 120.356572 120.32V870.034286a120.722286 120.722286 0 0 1-120.356572 120.393143" fill="#FF5656" p-id="5942"></path><path d="M995.510857 430.006857H101.668571a68.864 68.864 0 0 1-64.182857-93.769143L124.196571 112.64A123.977143 123.977143 0 0 1 239.725714 33.572571h617.691429c51.126857 0 97.024 31.414857 115.492571 79.067429l86.784 223.597714a68.827429 68.827429 0 0 1-64.182857 93.769143" fill="#2567FF" p-id="5943"></path><path d="M607.085714 830.683429h-117.028571a61.952 61.952 0 0 1-61.952-61.952v-117.028572c0-34.230857 27.757714-61.952 61.952-61.952h117.028571c34.230857 0 61.952 27.721143 61.952 61.952v117.028572c0 34.194286-27.721143 61.952-61.952 61.952" fill="#FFFFFF" p-id="5944"></path></svg>