<?xml version="1.0" standalone="no"?><!DOCTYPE svg PUBLIC "-//W3C//DTD SVG 1.1//EN" "http://www.w3.org/Graphics/SVG/1.1/DTD/svg11.dtd"><svg t="1664340726895" class="icon" viewBox="0 0 1024 1024" version="1.1" xmlns="http://www.w3.org/2000/svg" p-id="8858" xmlns:xlink="http://www.w3.org/1999/xlink" width="200" height="200"><path d="M484.420416 2.086134c29.273165-2.714217 59.735203-0.044863 86.753998 12.191544 115.522453 50.11207 231.056123 100.235356 346.578576 150.358642 6.090164 2.747864 12.460723 4.979803 18.113472 8.624929 11.877503 7.211742 23.126922 16.879737 28.488062 30.035838 5.630318 13.537437 3.678773 29.789091-4.822782 41.711456-8.93897 12.673823-22.375465 21.556714-36.484907 27.534721-55.058226 24.83172-110.105235 49.674655-165.163462 74.495159-22.689507-33.568806-52.198204-62.52793-86.35023-84.353823-34.095947-21.904403-72.756714-36.641928-112.785805-42.990055-43.348959-6.8977-88.23448-4.172267-130.36092 8.176298-69.414414 20.042585-130.529157 66.711413-168.550624 128.084119-61.630668-27.411347-123.205257-54.957284-184.847141-82.334984-12.685038-4.037678-25.571961-9.903527-33.882848-20.726747-9.679211-12.068171-10.969025-29.665717-4.329288-43.461117 6.97621-14.490778 20.48-24.629836 34.555794-31.684556C191.87943 123.373494 312.42655 69.010646 432.973669 14.625367c16.12828-7.525783 33.860416-10.767141 51.446747-12.539233z" p-id="8859"></path><path d="M390.241577 347.554348c46.915575-37.169069 105.394611-56.493844 163.828784-66.083329 3.712421-1.424403 6.303264 4.295641 2.781512 6.067732-29.26195 17.552683-56.706944 39.030887-77.467338 66.341293a197.431238 197.431238 0 0 0-32.155619 63.099934c-9.892311 32.222913-11.361577 66.16184-12.797196 99.618489 12.931785-0.089726 25.863571 0.201884 38.78414-0.179453 7.48092 0.381336 13.301906 8.086572 12.146681 15.38804-0.336473 4.205915-3.275005 7.447273-5.73126 10.643767-28.959124 37.550405-57.907032 75.112026-86.843723 112.684864-3.117985 4.385367-7.021073 8.400613-12.090603 10.475531-10.015685 4.441446-22.723154 1.233735-29.351676-7.503352-31.078905-39.614107-62.090515-79.273078-93.158203-118.898401-3.409595-3.936736-4.699409-9.712859-2.68057-14.591719 1.906681-5.080745 7.054721-8.692223 12.483154-8.725871 12.370997-0.112158 24.753209 0 37.135422-0.044863 0.717809-35.318467 10.576473-70.311676 27.66931-101.177481 14.37862-25.942081 34.219321-48.73253 57.447185-67.115181z" p-id="8860"></path><path d="M10.812004 346.141161c11.350361-13.840263 30.013406-19.941643 47.498796-19.111676 16.251654 1.289814 31.112552 8.49034 45.659408 15.275882 44.033122 20.199606 88.088675 40.37678 132.121796 60.576385-26.244907 65.668346-27.837547 140.769157-4.385367 207.491786 22.790449 65.724425 69.661161 122.622037 129.654327 157.805914 36.619496 21.657656 77.99448 35.139014 120.322804 39.42344 0.011216 53.813275-0.022432 107.62655 0.011216 161.428609 0.29161 12.236407-3.577831 24.629836-11.384009 34.129594-10.677415 13.301906-27.680526 20.6931-44.605126 20.838905h-1.177656c-12.651391-0.437415-24.685915-4.811566-36.52977-8.871676-107.009682-49.663439-213.985717-99.382957-320.972968-149.102475-17.844294-8.636145-33.804337-21.119299-46.590318-36.249376C9.993253 817.304535 1.525345 802.421205 0 785.945235V376.154567c0.594436-10.778357 3.779715-21.64644 10.812004-30.013406zM914.567711 344.873779c15.993691-7.536999 32.054677-16.206791 49.999912-17.743352 16.004907-0.908478 32.884644 3.947952 44.571479 15.264666 9.230581 8.86046 14.232815 21.680088 14.064578 34.421205 0.022432 134.20793 0 268.404644 0 402.601358 0.246747 15.477766-5.663965 30.5069-14.703877 42.889113-13.604732 18.719124-33.445433 32.133187-54.699321 40.780548-109.544447 51.514042-219.044031 103.117809-328.55483 154.687929-8.815597 3.970383-18.449945 5.820986-28.073078 6.224754h-3.005827c-13.672026-0.773888-27.613231-5.215334-37.662563-14.827251-9.522191-8.725871-14.793604-21.612793-14.703877-34.477284-0.022432-55.697525-0.011216-111.383834-0.011216-167.081358 57.750011-5.742475 113.537262-29.026418 158.265761-65.993603 55.641446-45.502388 93.808719-111.84368 104.665586-182.94046 8.097788-51.671062 2.388959-105.461906-16.700285-154.18322 42.171303-19.89678 84.365038-39.748697 126.547558-59.623045z" p-id="8861"></path><path d="M641.721621 360.160876c10.217568-5.495728 23.968105-2.46747 30.966747 6.763111 30.79851 39.143045 61.574589 78.308521 92.361884 117.451566 2.703001 4.295641 4.93494 9.567054 3.364732 14.681446-1.514129 6.000438-7.335115 10.598905-13.559869 10.430668-12.12425 0.044863-24.248499-0.022432-36.372749 0.022432-1.16644 45.97345-17.249858 91.442191-45.233209 127.949529-21.242673 27.848762-49.181161 50.179365-79.968456 66.666549-38.671982 20.749179-81.41529 32.884644-124.562366 39.939365-3.061906 1.177656-5.742475-2.904885-3.63391-5.271413 3.947952-2.893669 8.35575-5.058313 12.460723-7.716451 29.946112-18.786418 57.615422-42.33954 77.029923-72.173494 13.772968-20.894984 23.082059-44.59391 27.871194-69.122804 5.361139-26.525301 5.697612-53.701117 5.652749-80.652618-13.043943-0.145805-26.087886 0.235531-39.109397-0.179452-9.768938-1.16644-14.96184-13.918773-8.950187-21.64644 29.149792-37.741073 58.501468-75.336342 87.72977-113.021337 4.13862-5.159255 7.738883-11.204556 13.952421-14.120657z" p-id="8862"></path></svg>