<?xml version="1.0" standalone="no"?><!DOCTYPE svg PUBLIC "-//W3C//DTD SVG 1.1//EN" "http://www.w3.org/Graphics/SVG/1.1/DTD/svg11.dtd"><svg t="1664340763475" class="icon" viewBox="0 0 1024 1024" version="1.1" xmlns="http://www.w3.org/2000/svg" p-id="10099" xmlns:xlink="http://www.w3.org/1999/xlink" width="200" height="200"><path d="M0 0h1024v1024H0z" fill="#FFFFFF" p-id="10100"></path><path d="M768 181.333333a32 32 0 0 1 31.850667 28.928L800 213.333333v168.085334l120.106667-70.144a32 32 0 0 1 48.128 27.626666v384a32 32 0 0 1-48.149334 27.626667L800 680.213333V810.666667a32 32 0 0 1-28.928 31.850666L768 842.666667H85.333333a32 32 0 0 1-31.850666-28.928L53.333333 810.666667V213.333333a32 32 0 0 1 28.928-31.850666L85.333333 181.333333h682.666667zM309.333333 384v256a32 32 0 0 0 48.469334 27.434667l213.333333-128a32 32 0 0 0 0-54.869334l-213.333333-128A32 32 0 0 0 309.333333 384z" fill="#111111" p-id="10101"></path></svg>