<?xml version="1.0" standalone="no"?><!DOCTYPE svg PUBLIC "-//W3C//DTD SVG 1.1//EN" "http://www.w3.org/Graphics/SVG/1.1/DTD/svg11.dtd"><svg t="1664340738634" class="icon" viewBox="0 0 1024 1024" version="1.1" xmlns="http://www.w3.org/2000/svg" p-id="9119" xmlns:xlink="http://www.w3.org/1999/xlink" width="200" height="200"><path d="M480 704c0-48 12.8-96 38.4-134.4-54.4 0-112-16-156.8-48-16-12.8-41.6-12.8-60.8-3.2-108.8 70.4-172.8 192-172.8 320 0 0-3.2 57.6 28.8 57.6h409.6c-51.2-48-86.4-115.2-86.4-192zM544 508.8c16-3.2 28.8-6.4 41.6-12.8 12.8-9.6 28.8-19.2 41.6-25.6 38.4-28.8 64-70.4 70.4-118.4 12.8-83.2-25.6-163.2-102.4-201.6-73.6-38.4-166.4-25.6-224 35.2s-73.6 150.4-35.2 224 124.8 115.2 208 99.2zM928 659.2c-38.4 0-41.6 41.6-41.6 57.6v6.4c-9.6 38.4-44.8 67.2-86.4 67.2h-118.4V768c0-19.2-12.8-35.2-28.8-38.4-19.2-3.2-35.2 3.2-44.8 19.2l-35.2 64c-6.4 12.8-6.4 28.8 0 38.4 6.4 12.8 19.2 19.2 35.2 19.2h192c89.6 0 163.2-70.4 166.4-160V704v-3.2c0-32-22.4-41.6-38.4-41.6z" p-id="9120"></path><path d="M537.6 704c0 22.4 19.2 38.4 38.4 38.4s38.4-19.2 38.4-38.4c0-48 38.4-89.6 89.6-89.6h121.6v25.6c0 19.2 12.8 35.2 32 38.4 19.2 3.2 35.2-3.2 44.8-22.4l32-64c6.4-12.8 6.4-25.6-3.2-38.4-6.4-12.8-19.2-19.2-35.2-19.2h-192c-92.8 3.2-166.4 76.8-166.4 169.6z" p-id="9121"></path></svg>