<?xml version="1.0" encoding="UTF-8"?><svg version="1.1" width="125px" height="44px" viewBox="0 0 125.0 44.0" xmlns="http://www.w3.org/2000/svg" xmlns:xlink="http://www.w3.org/1999/xlink"><defs><clipPath id="i0"><path d="M1920,0 L1920,1080 L0,1080 L0,0 L1920,0 Z"></path></clipPath><clipPath id="i1"><path d="M38.7231154,11.2039122 C39.5208537,10.4108835 40.8541596,10.6118809 41.3839398,11.6004614 C41.7074697,12.2037329 42.0029697,12.8236203 42.2707186,13.4546782 C43.4198077,16.169295 44,19.0622195 44,22.0337556 C44,25.0048728 43.4198077,27.8924912 42.2707186,30.606759 C41.1608157,33.2264973 39.5767742,35.5833123 37.5574315,37.6052247 C35.538019,39.6271371 33.1897078,41.2131246 30.5678603,42.3244399 C28.3366194,43.2686878 25.9828695,43.8326534 23.5674816,44 L20.4436746,44 C18.0283564,43.8326534 15.6799754,43.2686878 13.4432959,42.3244399 C12.8073225,42.05642 12.1936616,41.7604742 11.5911568,41.4366024 C10.5983941,40.9004232 10.4030908,39.5654904 11.1951813,38.7723222 L15.6688192,34.2876156 C16.1318017,33.8239742 16.8290644,33.6731039 17.4427254,33.9077522 C18.8762279,34.4551018 20.4159236,34.7455322 22.0000349,34.7455322 C25.3969596,34.7455322 28.5877735,33.4217699 30.986218,31.0201337 C33.3849413,28.6187069 34.7070213,25.418038 34.7070213,22.0225153 C34.7070213,20.4361788 34.4223986,18.8948031 33.870306,17.4591971 C33.6303778,16.8450345 33.786495,16.1468844 34.2494774,15.6833128 Z M42.1759606,1.83180613 C42.7841829,2.44080243 42.7841829,3.43482849 42.1759606,4.04382478 L4.03868541,42.2296311 C3.42502444,42.8386274 2.43770036,42.8386274 1.82947805,42.2296311 C1.22160437,41.6208442 1.22160437,40.626888 1.82947805,40.0178219 L39.9670321,1.83180613 C40.5752545,1.22315891 41.5680172,1.22315891 42.1759606,1.83180613 Z M21.9945265,0 C24.9620071,0 27.8458162,0.580860851 30.5567041,1.73148197 C31.1926775,1.99957159 31.8063384,2.29544759 32.4087735,2.61945903 C33.4016059,3.15556846 33.5969092,4.49050119 32.8048187,5.28359966 L28.3311808,9.76293045 C27.8681286,10.2265021 27.1708658,10.3773723 26.5572746,10.1427939 C25.1237721,9.59544425 23.5840764,9.30501383 22.0000349,9.30501383 C18.6030404,9.30501383 15.4122265,10.6284271 13.013782,13.0303426 C10.6149889,15.4318391 9.2931879,18.632159 9.2931879,22.0280307 C9.2931879,23.614088 9.58324921,25.1556732 10.1299032,26.5910697 C10.3696222,27.2055116 10.213505,27.9036616 9.75052255,28.3671635 L5.27688463,32.8465641 C4.47907657,33.6396625 3.14611934,33.4386651 2.61612991,32.4500847 C2.29253026,31.8467434 1.99703029,31.2268559 1.72928139,30.5955188 C0.580122623,27.8811812 0,24.9937722 0,22.0225153 C0,19.051049 0.580122623,16.1635702 1.72928139,13.4492326 C2.83918427,10.8297736 4.42350473,8.47267933 6.44256853,6.45076693 C8.46191123,4.4291338 10.8102922,2.84279723 13.4321397,1.73148197 C16.1430276,0.580860851 19.0268367,0 21.9945265,0 Z"></path></clipPath></defs><g transform="translate(-360.0 -80.0)"><g clip-path="url(#i0)"><g transform="translate(360.0 80.0)"><g clip-path="url(#i1)"><polygon points="0,0 44,0 44,44 0,44 0,0" stroke="none" fill="#3F86F9"></polygon></g><g transform="translate(53.0 6.0)"><text transform="translate(0.0 25.0)" font-family="PingFangSC-Medium, PingFang SC" font-size="24.0" font-weight="400" fill="#3F86F9" text-anchor="left">短视频</text></g></g></g></g></svg>